# xmcd CD database file
#
# Track frame offsets:
#	150
#	14198
#	30542
#	48297
#	66189
#	79626
#	93139
#	105845
#	122052
#	137091
#	152996
#	167763
#	182105
#
# Disc length: 2656 seconds
#
# Revision: 0
# Processed by: cddbd v1.5.2PL0 Copyright (c) Steve Scherf et al.
# Submitted via: CDex 1.50
#
DISCID=a20a5e0d
DTITLE=Götz Alsmann and Die WDR Big Band - Winterwunderwelt
DYEAR=2006
DGENRE=Jazz
TTITLE0=Der Weihnachtsmann
TTITLE1=Kling, Glöckchen, klingelingeling
TTITLE2=Lasst uns froh und munter sein
TTITLE3=Winter Wunderwelt
TTITLE4=Eine Muh, eine Mäh, eine Täterätätä
TTITLE5=Leise rieselt der Schnee
TTITLE6=Der Weihnachtsumtausch
TTITLE7=Die Frau vom Nikolaus
TTITLE8=Frosty, der Schneemann
TTITLE9=Blue Christmas (instr.)
TTITLE10=Winter in Kanada
TTITLE11=Süsser die Glocken nie klingen
TTITLE12=Hei, Hei, Hei, so eine Scheeballschlacht
EXTD=YEAR: 2006
EXTT0=
EXTT1=
EXTT2=
EXTT3=
EXTT4=
EXTT5=
EXTT6=
EXTT7=
EXTT8=
EXTT9=
EXTT10=
EXTT11=
EXTT12=
PLAYORDER=
